<svg width="180" height="180" viewBox="0 0 180 180" fill="none" xmlns="http://www.w3.org/2000/svg">
  <circle cx="90" cy="90" r="80" fill="#f59e0b" />
  <g transform="translate(45, 45) scale(3.75)">
    <path 
      d="m12 3-1.912 5.813a2 2 0 0 1-1.275 1.275L3 12l5.813 1.912a2 2 0 0 1 1.275 1.275L12 21l1.912-5.813a2 2 0 0 1 1.275-1.275L21 12l-5.813-1.912a2 2 0 0 1-1.275-1.275Z" 
      fill="#11100e" 
    />
    <path 
      d="m5 3 1 2.5L8.5 6 6 7 5 9.5 4 7 1.5 6 4 5.5Z" 
      fill="#11100e" 
    />
    <path 
      d="m19 17 1 2.5 2.5.5-2.5 1-1 2.5-1-2.5-2.5-1 2.5-1Z" 
      fill="#11100e" 
    />
  </g>
</svg>